# xmcd
#
# Track frame offsets: 
#        150
#        21612
#        34333
#        48582
#        68350
#        83122
#        99703
#        118296
#        142355
#        157154
#
# Disc length: 2492 seconds
#
# Revision: 0
# Processed by: cddbd v1.5.2PL0 Copyright (c) Steve Scherf et al.
# Submitted via: ExactAudioCopy v1.3
#
DISCID=9709ba0a
DTITLE=Ronnie Jacobsen - The San Jose Sessions
DYEAR=2009
DGENRE=Blues
TTITLE0=Bad Boy
TTITLE1=You Know It Aint Right
TTITLE2=Oh Baby
TTITLE3=Standing Around Crying
TTITLE4=Nothing But The Devil
TTITLE5=Rocket Ride
TTITLE6=Ludella
TTITLE7=Early In The Morning
TTITLE8=Hate To See You Go
TTITLE9=Nine Below Zero
EXTD=
EXTT0=
EXTT1=
EXTT2=
EXTT3=
EXTT4=
EXTT5=
EXTT6=
EXTT7=
EXTT8=
EXTT9=
PLAYORDER=
